<svg width="112" height="139" viewBox="0 0 112 139" fill="none" xmlns="http://www.w3.org/2000/svg">
<rect x="6.44643" y="22.7321" width="13.3929" height="13.3929" rx="6.69643" stroke="#05ACCD" stroke-width="0.892857"/>
<rect x="9.57129" y="25.8569" width="7.14286" height="7.14286" rx="3.57143" fill="#05ACCD"/>
<rect x="12.9195" y="36.7945" width="0.446429" height="19.1964" stroke="#05ACCD" stroke-width="0.446429"/>
<rect x="31" y="22.2856" width="50" height="8.03571" rx="4.01786" fill="#05C0E6"/>
<rect x="31" y="35.6785" width="75" height="8.03571" rx="4.01786" fill="#05C0E6"/>
<rect x="6.44643" y="60.2321" width="13.3929" height="13.3929" rx="6.69643" stroke="#05ACCD" stroke-width="0.892857"/>
<rect x="9.57129" y="63.3569" width="7.14286" height="7.14286" rx="3.57143" fill="#05ACCD"/>
<rect x="12.9195" y="74.2945" width="0.446429" height="19.1964" stroke="#05ACCD" stroke-width="0.446429"/>
<rect x="31" y="59.7856" width="50" height="8.03571" rx="4.01786" fill="#05C0E6"/>
<rect x="31" y="73.1785" width="75" height="8.03571" rx="4.01786" fill="#05C0E6"/>
<rect x="6.44643" y="97.7321" width="13.3929" height="13.3929" rx="6.69643" stroke="#EDFBFD" stroke-width="0.892857"/>
<rect x="9.57129" y="100.857" width="7.14286" height="7.14286" rx="3.57143" fill="#EDFBFD"/>
<rect x="31" y="97.2856" width="50" height="8.03571" rx="4.01786" fill="#EDFBFD"/>
<rect x="31" y="110.678" width="75" height="8.03571" rx="4.01786" fill="#EDFBFD"/>
</svg>
