<svg width="112" height="141" viewBox="0 0 112 141" fill="none" xmlns="http://www.w3.org/2000/svg">
<path d="M25.5 -18L59.3174 29.7627C66.7986 40.329 62.4219 55.1107 50.394 59.9006L42.4011 63.0836C29.976 68.0317 25.8145 83.5453 34.0952 94.0476L58.5 125" stroke="#05C0E6" stroke-width="8"/>
<rect x="40" y="3" width="36" height="36" rx="18" fill="#EDFBFD"/>
<path d="M55.9569 25.4545C55.9569 26.8604 54.8453 28 53.4741 28C52.1029 28 50.9914 26.8604 50.9914 25.4545M55.9569 25.4545C55.9569 24.0487 54.8453 22.9091 53.4741 22.9091C52.1029 22.9091 50.9914 24.0487 50.9914 25.4545M55.9569 25.4545H61.5431M50.9914 25.4545H49.75V23M67.1293 25.4545C67.1293 26.8604 66.0177 28 64.6466 28C63.2754 28 62.1638 26.8604 62.1638 25.4545M67.1293 25.4545C67.1293 24.0487 66.0177 22.9091 64.6466 22.9091C63.2754 22.9091 62.1638 24.0487 62.1638 25.4545M67.1293 25.4545H67.75V20.3636L64.6466 17.1818H61.5431V25.4545M62.1638 25.4545H61.5431M61.5431 25.4545V14H50.75C50.1977 14 49.75 14.4477 49.75 15M48.25 17H54.4741M49.25 20H52.75" stroke="#05C0E6" stroke-width="2" stroke-linecap="round" stroke-linejoin="round"/>
<rect x="40" y="105" width="36" height="36" rx="18" fill="#EDFBFD"/>
<path d="M50 126.204L50 129.893C50 130.451 50.2107 130.987 50.5858 131.383C50.9609 131.778 51.4696 132 52 132H64C64.5304 132 65.0391 131.778 65.4142 131.383C65.7893 130.987 66 130.451 66 129.893V126.204M58.0011 114V125.942M58.0011 125.942L62.5725 121.379M58.0011 125.942L53.4297 121.379" stroke="#05C0E6" stroke-width="2" stroke-linecap="round" stroke-linejoin="round"/>
</svg>
